<?xml version="1.0" standalone="no"?>
<!DOCTYPE svg PUBLIC "-//W3C//DTD SVG 20010904//EN"
 "http://www.w3.org/TR/2001/REC-SVG-20010904/DTD/svg10.dtd">
<svg version="1.0" xmlns="http://www.w3.org/2000/svg"
width="45px" height="45px" viewBox="0 0 512.000000 512.000000"
 preserveAspectRatio="xMidYMid meet">

<g transform="translate(0.000000,512.000000) scale(0.100000,-0.100000)"
fill="#ffff" stroke="none">
<path d="M4613 4658 c-6 -7 -24 -69 -41 -138 -97 -393 -243 -749 -413 -1010
l-62 -95 -1 -195 c-1 -177 -3 -200 -24 -251 -37 -92 -103 -139 -197 -139 -76
0 -125 27 -182 100 -25 33 -52 60 -59 60 -6 0 -142 -45 -300 -100 -159 -54
-311 -104 -337 -111 -70 -17 -171 -7 -247 26 -144 61 -170 67 -255 63 -66 -4
-95 -11 -165 -44 -83 -38 -87 -39 -200 -39 l-115 0 -275 118 c-221 95 -277
115 -285 104 -30 -40 -92 -114 -105 -125 -31 -27 -97 -52 -139 -52 -102 0
-178 70 -205 190 -19 81 -21 256 -5 364 l11 74 -63 104 c-119 196 -258 513
-392 892 -53 153 -72 181 -104 160 -17 -11 -18 -75 -21 -1090 -2 -736 1 -1114
8 -1189 64 -637 419 -1210 975 -1575 113 -74 320 -172 460 -219 445 -148 911
-150 1355 -5 783 256 1359 966 1449 1786 16 145 15 2320 -1 2336 -16 16 -53
15 -65 0z"/>
<path d="M1965 4109 c-206 -31 -395 -135 -576 -318 -118 -119 -161 -191 -200
-336 -27 -102 -37 -325 -17 -400 20 -76 42 -73 115 16 111 139 240 224 409
271 74 21 100 23 410 23 l331 1 52 26 51 25 53 -26 52 -26 280 3 c373 5 499
-16 664 -110 62 -36 194 -157 236 -219 23 -32 34 -39 54 -37 22 2 28 11 38 48
17 65 15 235 -3 330 -35 185 -88 285 -224 420 -141 141 -316 245 -485 290 -91
24 -242 28 -321 9 -95 -22 -195 -79 -271 -154 l-73 -71 -73 72 c-133 130 -319
191 -502 163z"/>
</g>
</svg>
