<?xml version="1.0" standalone="no"?>
<!DOCTYPE svg PUBLIC "-//W3C//DTD SVG 20010904//EN"
 "http://www.w3.org/TR/2001/REC-SVG-20010904/DTD/svg10.dtd">
<svg version="1.0" xmlns="http://www.w3.org/2000/svg"
  width="45px" height="45px" viewBox="0 0 512.000000 512.000000"
 preserveAspectRatio="xMidYMid meet">

<g transform="translate(0.000000,512.000000) scale(0.100000,-0.100000)"
fill="#ffff" stroke="none">
<path d="M4110 4625 c-60 -19 -121 -72 -166 -145 -20 -32 -41 -57 -47 -55 -37
12 -487 105 -562 117 -54 7 -174 12 -300 12 -186 -1 -239 -5 -460 -37 -597
-86 -924 -107 -1769 -114 l-679 -5 -24 -24 c-22 -22 -23 -29 -23 -174 0 -147
1 -152 25 -175 13 -14 31 -25 40 -25 13 0 15 -20 15 -136 0 -78 5 -154 12
-178 16 -55 99 -138 154 -154 51 -15 578 -16 869 -2 492 24 947 79 1404 170
l195 38 27 -29 c33 -35 55 -36 145 -5 101 34 149 61 180 101 43 57 53 100 54
234 l0 123 93 -7 c190 -13 394 -41 411 -56 9 -8 -178 -289 -317 -474 -343
-457 -785 -939 -1246 -1359 -164 -149 -363 -316 -766 -643 -231 -187 -436
-357 -457 -378 -128 -133 -155 -364 -61 -537 31 -58 123 -147 181 -177 57 -29
146 -51 207 -51 65 0 159 24 210 55 54 31 450 315 605 433 746 569 1386 1294
1864 2112 117 200 313 592 435 870 l90 205 90 6 c102 8 200 36 281 82 55 31
200 165 200 185 0 6 -27 30 -60 52 l-61 41 -57 -58 c-88 -89 -209 -143 -318
-143 l-41 0 -6 59 c-12 142 -122 249 -262 257 -35 2 -79 -2 -105 -11z m173
-183 c38 -38 46 -102 23 -189 -31 -124 -312 -725 -463 -993 -425 -751 -994
-1436 -1648 -1980 -253 -211 -779 -592 -859 -623 -98 -37 -236 -3 -302 76 -55
65 -69 106 -69 202 0 154 -14 138 512 565 639 519 826 684 1178 1041 584 593
1005 1132 1360 1742 62 107 108 173 124 183 41 23 107 12 144 -24z m-925 -67
c107 -18 454 -94 461 -101 3 -2 0 -9 -5 -14 -7 -7 -60 -2 -155 14 -157 26
-367 46 -491 46 -70 0 -82 -3 -103 -25 -25 -24 -25 -27 -25 -193 0 -153 -2
-172 -20 -194 -11 -14 -29 -28 -40 -31 -20 -5 -20 -1 -20 188 0 178 -2 194
-20 218 -11 14 -29 29 -40 32 -10 3 -101 -8 -202 -24 -598 -99 -1065 -131
-1920 -131 l-538 0 0 40 0 40 468 0 c791 0 1245 29 1912 120 118 16 233 32
255 34 81 8 393 -4 483 -19z m-558 -354 l0 -119 -237 -46 c-641 -124 -1187
-176 -1881 -176 l-313 0 -24 25 c-24 23 -25 29 -25 158 l0 135 638 5 c643 5
769 11 1142 48 190 19 612 74 635 83 6 3 22 5 38 5 l27 1 0 -119z"/>
<path d="M4080 4240 l0 -80 80 0 80 0 0 80 0 80 -80 0 -80 0 0 -80z"/>
<path d="M1200 1187 c-49 -16 -133 -102 -148 -153 -28 -94 -8 -169 63 -239
101 -102 229 -102 330 0 98 97 101 222 8 325 -65 72 -158 97 -253 67z m135
-172 c50 -49 15 -135 -55 -135 -19 0 -40 9 -55 25 -16 15 -25 36 -25 55 0 19
9 40 25 55 15 16 36 25 55 25 19 0 40 -9 55 -25z"/>
</g>
</svg>
