<?xml version="1.0" standalone="no"?>
<!DOCTYPE svg PUBLIC "-//W3C//DTD SVG 20010904//EN"
 "http://www.w3.org/TR/2001/REC-SVG-20010904/DTD/svg10.dtd">
<svg version="1.0" xmlns="http://www.w3.org/2000/svg"
 width="512.000000pt" height="512.000000pt" viewBox="0 0 512.000000 512.000000"
 preserveAspectRatio="xMidYMid meet">

<g transform="translate(0.000000,512.000000) scale(0.100000,-0.100000)"
fill="#000000" stroke="none">
<path d="M3945 4994 c-85 -21 -87 -23 -840 -774 l-750 -749 -857 684 c-498
396 -876 690 -900 700 -195 80 -403 -106 -344 -308 14 -50 93 -152 705 -920
l688 -865 -738 -738 c-489 -489 -746 -753 -759 -779 -30 -62 -34 -115 -15
-181 17 -58 25 -67 343 -387 180 -181 339 -335 354 -343 15 -8 36 -14 48 -14
32 0 70 44 70 82 0 28 -23 55 -205 238 -113 113 -205 210 -205 216 0 5 24 33
53 62 l52 52 210 -210 c215 -215 227 -224 280 -204 24 9 47 61 39 87 -4 12
-98 116 -210 232 l-203 210 54 55 55 55 207 -207 c132 -131 218 -209 236 -213
51 -13 105 42 92 93 -4 17 -87 108 -213 235 l-207 207 58 57 57 58 208 -208
c185 -184 212 -207 240 -207 41 0 82 38 82 77 0 22 -38 65 -205 233 -113 113
-205 210 -205 216 0 5 24 33 53 62 l52 52 205 -205 c178 -178 209 -205 236
-205 43 0 74 32 74 78 0 35 -12 49 -199 237 l-200 200 55 59 56 59 207 -207
c117 -117 216 -206 227 -207 72 -4 99 23 95 95 -1 11 -91 110 -208 228 l-208
208 58 58 57 57 208 -206 c114 -114 215 -209 224 -212 24 -8 76 11 88 33 6 10
10 32 10 49 0 27 -29 60 -207 241 l-207 211 51 51 51 51 373 -469 c454 -570
439 -550 439 -559 0 -3 -11 -21 -24 -38 -36 -47 -93 -172 -112 -247 -23 -87
-23 -254 -1 -340 26 -101 98 -237 162 -308 281 -309 753 -323 1046 -30 171
171 245 424 194 663 -8 38 -15 70 -15 71 0 1 24 -5 53 -13 177 -46 382 -14
546 85 173 104 300 311 332 537 25 180 -38 384 -164 534 -233 276 -657 331
-959 123 l-44 -30 -512 409 -512 409 56 56 56 57 206 -206 c194 -194 209 -207
244 -207 28 0 42 6 57 26 42 54 36 62 -189 289 l-210 210 58 58 57 58 205
-211 c195 -201 207 -210 243 -210 49 0 77 28 77 77 0 36 -11 49 -207 245
l-208 208 57 57 58 58 213 -213 c235 -234 242 -238 298 -183 31 32 35 50 18
84 -6 12 -101 112 -210 222 l-198 200 54 60 54 60 213 -212 c187 -187 217
-213 244 -213 41 0 72 27 80 68 7 32 1 39 -207 248 l-214 214 57 57 57 56 204
-201 c164 -163 209 -202 231 -202 38 0 76 41 76 81 0 29 -22 54 -206 232
l-205 200 58 59 57 58 211 -210 c188 -187 215 -210 243 -210 44 0 82 38 82 82
0 28 -23 55 -210 243 l-210 211 58 57 57 57 204 -204 c114 -114 214 -206 227
-209 29 -5 79 16 88 38 3 9 6 31 6 48 0 29 -35 66 -336 362 -185 181 -351 337
-368 347 -34 18 -109 29 -141 22z m73 -168 c15 -8 52 -40 82 -70 l55 -56 -741
-741 -741 -741 -96 77 -96 76 730 727 c402 400 738 730 747 734 25 10 30 9 60
-6z m-2927 -553 c759 -605 1017 -811 1815 -1446 403 -320 730 -583 729 -585
-1 -1 -130 -19 -285 -38 l-283 -36 -1271 1273 c-699 699 -1257 1263 -1240
1253 17 -10 258 -200 535 -421z m1944 -2263 c22 0 211 21 419 47 l380 47 40
33 c137 111 230 151 371 160 282 17 522 -166 580 -442 8 -38 15 -88 15 -110 0
-69 -28 -177 -66 -253 -90 -183 -273 -292 -491 -292 -169 0 -267 39 -419 165
-102 85 -186 133 -294 167 -62 19 -97 23 -200 23 -165 0 -274 -32 -398 -117
l-43 -30 -22 29 c-12 15 -577 725 -1255 1577 -679 852 -1236 1556 -1239 1565
-3 9 577 -566 1288 -1276 1285 -1283 1294 -1293 1334 -1293z m-1216 531 c39
-49 71 -93 71 -97 0 -5 -331 -340 -735 -744 l-735 -735 -65 65 c-44 44 -67 76
-71 98 -7 34 -3 38 727 768 404 404 735 734 736 734 0 0 33 -40 72 -89z m1680
-1156 c205 -49 365 -208 417 -415 24 -94 15 -233 -20 -324 -145 -380 -623
-487 -911 -202 -159 156 -212 375 -140 579 31 91 74 154 150 226 137 128 324
178 504 136z"/>
<path d="M4210 2139 c-125 -21 -236 -107 -293 -227 -29 -61 -32 -75 -32 -167
0 -91 3 -106 31 -165 41 -86 108 -153 192 -193 62 -30 75 -32 172 -32 93 0
112 3 162 27 161 75 259 258 230 426 -26 148 -131 272 -267 315 -69 21 -130
26 -195 16z m178 -181 c56 -27 99 -80 118 -147 45 -153 -67 -300 -229 -301
-98 0 -172 46 -213 135 -97 207 114 411 324 313z"/>
<path d="M3262 1857 c-47 -50 -15 -131 51 -131 60 0 95 48 76 104 -19 54 -88
69 -127 27z"/>
<path d="M3285 1226 c-204 -50 -341 -250 -306 -447 37 -214 207 -349 422 -337
299 17 468 354 307 610 -56 90 -150 154 -256 177 -65 14 -102 13 -167 -3z
m196 -177 c172 -87 168 -345 -6 -425 -160 -75 -338 36 -340 211 -1 179 187
296 346 214z"/>
</g>
</svg>
