<?xml version="1.0" standalone="no"?>
<!DOCTYPE svg PUBLIC "-//W3C//DTD SVG 20010904//EN"
 "http://www.w3.org/TR/2001/REC-SVG-20010904/DTD/svg10.dtd">
<svg version="1.0" xmlns="http://www.w3.org/2000/svg"
 width="45px" height="45px" viewBox="0 0 512.000000 512.000000"
 preserveAspectRatio="xMidYMid meet">

<g transform="translate(0.000000,512.000000) scale(0.100000,-0.100000)"
fill="#ffff" stroke="none">
<path d="M2065 5094 c-94 -49 -114 -98 -115 -282 0 -156 7 -187 56 -235 47
-47 83 -60 177 -65 l87 -4 0 -119 0 -119 -333 0 c-370 0 -396 -3 -484 -63 -26
-19 -65 -58 -85 -88 -70 -101 -68 -74 -68 -1045 l0 -872 -37 -7 c-56 -10 -109
-44 -139 -87 -29 -42 -36 -41 -62 5 -15 28 -18 74 -22 382 -3 240 -9 356 -17
370 -18 32 -76 83 -106 94 -88 33 -192 -3 -242 -84 l-30 -48 -3 -337 c-3 -382
3 -434 64 -559 63 -127 205 -244 340 -280 33 -9 43 -17 49 -39 12 -48 46 -92
93 -120 l47 -27 308 -3 307 -3 0 -228 0 -228 -56 -7 c-65 -7 -98 -23 -136 -63
-35 -37 -48 -73 -48 -134 0 -56 15 -92 57 -131 55 -52 85 -58 303 -58 l200 0
0 -118 0 -119 -103 -6 c-155 -9 -218 -29 -459 -149 l-219 -108 -153 0 c-105 0
-156 -4 -164 -12 -15 -15 -15 -61 0 -76 17 -17 2959 -17 2976 0 15 15 15 61 0
76 -8 8 -59 12 -165 12 l-153 0 -210 105 c-238 119 -310 143 -462 152 l-108 6
0 119 0 118 200 0 c218 0 248 6 303 58 42 39 57 75 57 131 0 61 -13 97 -48
134 -38 40 -71 56 -136 63 l-56 7 0 228 0 228 308 3 307 3 47 27 c47 28 81 72
93 120 6 22 16 30 49 39 135 36 277 153 340 280 61 125 67 177 64 559 l-3 337
-30 48 c-50 81 -154 117 -242 84 -30 -11 -88 -62 -106 -94 -8 -14 -14 -130
-17 -370 -4 -308 -7 -354 -22 -382 -26 -46 -33 -47 -62 -5 -30 43 -83 77 -138
87 l-38 7 0 872 c0 971 2 944 -68 1045 -20 30 -59 69 -85 88 -88 60 -114 63
-484 63 l-333 0 0 119 0 119 88 4 c103 5 156 29 199 91 27 39 28 46 31 186 4
165 -4 204 -51 258 -56 64 -48 63 -559 63 -400 0 -467 -2 -493 -16z m971 -117
c23 -27 24 -35 24 -167 l0 -138 -31 -26 -31 -26 -438 0 -438 0 -31 26 -31 26
0 137 c0 146 7 172 54 191 11 5 218 8 459 7 l439 -2 24 -28z m-296 -587 l0
-120 -180 0 -180 0 0 120 0 120 180 0 180 0 0 -120z m856 -265 c30 -19 60 -49
79 -79 l30 -49 3 -899 2 -898 -1150 0 -1150 0 0 883 c1 711 3 889 14 920 21
58 61 103 118 131 l53 26 976 -2 976 -3 49 -30z m-2686 -1291 l25 -24 5 -353
5 -352 28 -48 c16 -27 49 -63 73 -80 l44 -31 0 -99 c0 -113 5 -110 -99 -58
-105 52 -195 164 -227 286 -18 66 -20 701 -3 739 15 31 66 58 99 50 14 -3 36
-16 50 -30z m3399 25 c59 -21 61 -33 61 -401 0 -358 -3 -387 -54 -485 -47 -94
-162 -189 -263 -218 -23 -6 -23 -5 -23 92 l0 99 44 31 c24 17 57 53 73 80 l28
48 5 351 c5 334 6 353 25 374 17 20 48 37 66 39 3 1 20 -4 38 -10z m-430 -784
c43 -22 51 -60 51 -245 0 -185 -8 -223 -51 -245 -42 -22 -2596 -22 -2638 0
-43 22 -51 60 -51 245 0 183 8 223 49 245 40 22 2598 22 2640 0z m-1711 -847
l2 -228 -105 0 -105 0 0 230 0 231 103 -3 102 -3 3 -227z m680 0 l2 -228 -290
0 -290 0 0 223 c0 123 3 227 7 230 4 4 133 6 287 5 l281 -3 3 -227z m312 2 l0
-230 -105 0 -105 0 0 223 c0 123 3 227 7 230 3 4 51 7 105 7 l98 0 0 -230z
m221 -369 c36 -36 37 -70 3 -110 l-26 -31 -798 0 -798 0 -26 31 c-34 40 -33
74 3 110 l29 29 792 0 792 0 29 -29z m-531 -371 l0 -120 -290 0 -290 0 0 120
0 120 290 0 290 0 0 -120z m342 -249 c42 -11 124 -44 184 -75 l109 -55 -925 0
-925 0 109 55 c187 95 167 93 812 93 522 1 566 0 636 -18z"/>
<path d="M1820 3790 c-25 -25 -26 -52 -2 -73 17 -16 83 -17 745 -17 l726 0 15
22 c21 30 20 44 -4 68 -20 20 -33 20 -740 20 -707 0 -720 0 -740 -20z"/>
<path d="M1810 3401 c-15 -28 -12 -46 8 -64 17 -16 83 -17 744 -17 716 0 725
0 743 20 15 16 17 26 9 48 l-9 27 -742 3 c-726 2 -742 2 -753 -17z"/>
<path d="M1816 3024 c-21 -21 -20 -47 2 -67 17 -16 83 -17 744 -17 690 0 726
1 741 18 21 23 22 46 1 66 -14 14 -95 16 -744 16 -649 0 -730 -2 -744 -16z"/>
<path d="M1815 2640 c-15 -16 -17 -26 -9 -48 l9 -27 745 0 745 0 9 27 c8 22 6
32 -9 48 -18 20 -27 20 -745 20 -718 0 -727 0 -745 -20z"/>
</g>
</svg>
