<?xml version="1.0" standalone="no"?>
<!DOCTYPE svg PUBLIC "-//W3C//DTD SVG 20010904//EN"
 "http://www.w3.org/TR/2001/REC-SVG-20010904/DTD/svg10.dtd">
<svg version="1.0" xmlns="http://www.w3.org/2000/svg"
  width="45px" height="45px" viewBox="0 0 512.000000 512.000000"
 preserveAspectRatio="xMidYMid meet">

<g transform="translate(0.000000,512.000000) scale(0.100000,-0.100000)"
fill="#ffff" stroke="none">
<path d="M1688 5086 c-97 -74 -144 -178 -136 -300 5 -71 17 -100 431 -1017
235 -519 427 -948 427 -953 0 -5 -133 -240 -296 -523 l-297 -513 -51 7 c-310
47 -602 -83 -765 -341 -37 -59 -38 -74 -10 -110 15 -19 30 -26 55 -26 39 0 49
9 116 102 80 111 210 192 354 223 87 19 151 19 239 0 91 -19 118 -19 143 3 12
9 148 238 303 507 155 270 284 492 286 494 2 3 11 -6 20 -20 61 -90 169 -150
276 -151 32 0 55 -4 50 -8 -4 -4 -80 -17 -167 -29 -88 -12 -167 -26 -175 -31
-14 -7 -103 -156 -398 -669 -47 -82 -83 -156 -83 -172 0 -18 21 -51 66 -105
36 -43 78 -106 94 -140 190 -397 -92 -854 -530 -857 -60 0 -118 6 -158 17 -79
21 -104 11 -149 -59 -62 -98 -89 -128 -146 -171 -98 -73 -148 -87 -328 -92
-142 -4 -159 -2 -196 16 -33 17 -73 58 -73 76 0 2 89 6 198 8 178 4 203 6 257
28 73 28 157 109 199 191 37 71 32 91 -45 176 -97 107 -158 252 -159 375 0 35
-6 54 -23 74 -31 36 -82 38 -110 3 -17 -21 -19 -34 -14 -109 10 -147 65 -286
164 -412 l46 -58 -27 -35 c-15 -19 -46 -45 -69 -58 -39 -21 -58 -22 -285 -27
l-244 -5 -25 -29 c-23 -27 -25 -36 -21 -91 9 -106 70 -195 166 -242 54 -26 66
-28 210 -31 177 -4 259 9 368 62 94 45 166 105 226 187 l51 70 56 -8 c380 -54
730 165 843 527 33 109 33 312 0 420 -31 96 -68 170 -126 246 -25 34 -46 66
-46 70 0 5 89 162 198 349 l197 340 70 12 c99 18 177 19 275 4 l85 -13 190
-329 c105 -182 194 -338 198 -348 7 -14 -3 -34 -39 -82 -62 -84 -118 -205
-139 -302 -13 -61 -16 -105 -12 -190 4 -62 9 -125 12 -142 5 -28 -2 -37 -125
-145 -72 -63 -137 -125 -145 -137 -39 -58 -4 -154 63 -174 36 -10 52 -7 214
45 97 31 180 56 184 56 5 0 34 -20 64 -45 229 -188 556 -222 818 -85 179 93
301 237 368 435 36 108 44 267 19 381 -60 275 -274 499 -545 570 -70 19 -229
24 -316 11 l-51 -7 -296 513 c-164 283 -297 518 -297 523 0 5 192 434 427 953
414 918 426 946 431 1017 8 122 -39 226 -136 300 -39 30 -53 35 -83 31 -20 -3
-48 -12 -62 -22 -17 -11 -186 -295 -489 -820 -255 -443 -465 -804 -468 -804
-3 0 -32 48 -66 107 -72 126 -95 145 -147 120 -25 -12 -37 -26 -42 -47 -6 -27
6 -52 79 -181 47 -82 86 -152 86 -155 0 -8 -178 -317 -189 -327 -3 -4 -186
389 -406 875 -395 871 -400 883 -400 947 0 51 5 73 24 103 13 21 27 35 32 30
4 -4 141 -240 304 -523 163 -283 306 -523 317 -532 61 -54 145 21 107 95 -6
12 -151 264 -321 559 -199 345 -319 543 -335 553 -14 10 -42 19 -62 22 -30 4
-44 -1 -83 -31z m2183 -215 c25 -74 17 -93 -396 -1008 l-399 -882 -42 44 c-54
55 -131 95 -200 102 -30 3 -54 9 -54 14 0 5 739 1290 1002 1743 l41 69 18 -24
c10 -13 24 -39 30 -58z m-1014 -1902 c34 -13 80 -55 99 -91 15 -28 20 -138 6
-138 -14 0 -233 226 -226 233 11 11 89 8 121 -4z m-117 -224 c63 -63 111 -117
108 -121 -4 -3 -29 -6 -57 -6 -105 0 -181 78 -181 185 0 32 3 57 8 57 4 0 59
-52 122 -115z m635 -593 c154 -268 290 -498 303 -510 25 -26 51 -27 167 -2
172 36 388 -33 521 -165 106 -106 162 -235 171 -392 10 -168 -46 -318 -164
-443 -71 -76 -142 -121 -245 -157 -101 -35 -251 -37 -353 -6 -88 28 -175 80
-240 143 -77 76 -85 77 -228 30 l-122 -39 98 90 c108 101 110 105 82 209 -8
30 -15 93 -15 140 0 155 45 272 154 404 71 84 77 105 49 159 -52 102 -446 774
-459 783 -8 7 -35 15 -60 19 -25 3 -44 10 -42 14 19 49 94 211 98 211 3 0 131
-220 285 -488z"/>
<path d="M3865 1539 c-145 -22 -300 -137 -362 -269 -72 -152 -70 -298 6 -448
131 -257 467 -343 709 -182 37 25 64 51 70 68 13 39 -3 78 -40 93 -27 11 -35
10 -67 -9 -136 -79 -129 -77 -236 -77 -90 0 -105 3 -153 28 -110 58 -180 162
-189 281 -17 202 143 371 347 369 176 -2 313 -128 338 -311 10 -73 32 -102 77
-102 43 0 75 35 75 83 0 115 -57 245 -144 333 -116 116 -270 167 -431 143z"/>
<path d="M1555 1539 c-145 -22 -300 -137 -362 -269 -72 -152 -70 -298 6 -448
131 -257 467 -343 710 -181 258 172 295 536 77 755 -116 116 -270 167 -431
143z m212 -171 c70 -26 145 -98 180 -173 24 -51 28 -73 28 -145 0 -71 -4 -94
-26 -141 -33 -69 -91 -129 -161 -166 -48 -25 -63 -28 -153 -28 -90 0 -105 3
-153 28 -70 37 -128 97 -161 166 -22 47 -26 70 -26 141 0 76 4 93 33 152 81
165 260 233 439 166z"/>
</g>
</svg>
